DataType=double
version=3
OpenSimVersion=4.5.2-2025-05-03-6a4c6ec41
endheader
time	q	/jointset/head_joint/q/speed
5.009999999999938	-3.124999999999976	-2.153832667772804e-14
5.019999999999937	-3.124974999999976	0.004999999999978355
5.029999999999937	-3.124899999999976	0.009999999999978249
5.039999999999937	-3.124774999999977	0.01499999999997814
5.049999999999937	-3.124599999999977	0.01999999999997804
5.059999999999937	-3.124374999999977	0.02499999999997793
5.069999999999936	-3.124099999999977	0.02999999999997782
5.079999999999936	-3.123774999999978	0.03499999999997772
5.089999999999936	-3.123399999999978	0.03999999999997761
5.099999999999936	-3.122974999999978	0.0449999999999775
5.109999999999935	-3.122499999999978	0.0499999999999774
5.119999999999935	-3.121974999999979	0.05499999999997729
5.129999999999935	-3.121399999999979	0.05999999999997718
5.139999999999935	-3.120774999999979	0.06499999999997708
5.149999999999935	-3.120099999999979	0.06999999999997697
5.159999999999934	-3.11937499999998	0.07499999999997686
5.169999999999934	-3.11859999999998	0.07999999999997676
5.179999999999934	-3.11777499999998	0.08499999999997665
5.189999999999934	-3.11689999999998	0.08999999999997654
5.199999999999934	-3.115974999999981	0.09499999999997644
5.209999999999933	-3.114999999999981	0.09999999999997633
5.219999999999933	-3.113974999999981	0.1049999999999762
5.229999999999933	-3.112899999999981	0.1099999999999761
5.239999999999933	-3.111774999999982	0.114999999999976
5.249999999999932	-3.110599999999982	0.1199999999999759
5.259999999999932	-3.109374999999982	0.1249999999999758
5.269999999999932	-3.108099999999982	0.1299999999999757
5.279999999999932	-3.106774999999983	0.1349999999999756
5.289999999999932	-3.105399999999983	0.1399999999999755
5.299999999999931	-3.103974999999983	0.1449999999999754
5.309999999999931	-3.102499999999983	0.1499999999999753
5.319999999999931	-3.100974999999984	0.1549999999999752
5.329999999999931	-3.099399999999984	0.1599999999999751
5.339999999999931	-3.097774999999984	0.1649999999999749
5.34999999999993	-3.096099999999984	0.1699999999999748
5.35999999999993	-3.094374999999985	0.1749999999999747
5.36999999999993	-3.092599999999985	0.1799999999999746
5.37999999999993	-3.090774999999985	0.1849999999999745
5.38999999999993	-3.088899999999986	0.1899999999999744
5.399999999999929	-3.086974999999986	0.1949999999999743
5.409999999999929	-3.084999999999986	0.1999999999999742
5.419999999999929	-3.082974999999986	0.2049999999999741
5.429999999999929	-3.080899999999987	0.209999999999974
5.439999999999928	-3.078774999999987	0.2149999999999739
5.449999999999928	-3.076599999999988	0.2199999999999738
5.459999999999928	-3.074374999999988	0.2249999999999737
5.469999999999928	-3.072099999999988	0.2299999999999736
5.479999999999928	-3.069774999999989	0.2349999999999735
5.489999999999927	-3.067399999999989	0.2399999999999733
5.499999999999927	-3.064974999999989	0.2449999999999732
5.509999999999927	-3.06249999999999	0.2499999999999731
5.519999999999927	-3.05997499999999	0.254999999999973
5.529999999999927	-3.05739999999999	0.2599999999999729
5.539999999999926	-3.05477499999999	0.2649999999999728
5.549999999999926	-3.052099999999991	0.2699999999999727
5.559999999999926	-3.049374999999991	0.2749999999999726
5.569999999999926	-3.046599999999991	0.2799999999999725
5.579999999999925	-3.043774999999992	0.2849999999999724
5.589999999999925	-3.040899999999992	0.2899999999999723
5.599999999999925	-3.037974999999992	0.2949999999999722
5.609999999999925	-3.034999999999993	0.2999999999999721
5.619999999999925	-3.031974999999993	0.304999999999972
5.629999999999924	-3.028899999999993	0.3099999999999719
5.639999999999924	-3.025774999999994	0.3149999999999717
5.649999999999924	-3.022599999999994	0.3199999999999716
5.659999999999924	-3.019374999999994	0.3249999999999715
5.669999999999924	-3.016099999999995	0.3299999999999714
5.679999999999923	-3.012774999999995	0.3349999999999713
5.689999999999923	-3.009399999999995	0.3399999999999712
5.699999999999923	-3.005974999999996	0.3449999999999711
5.709999999999923	-3.002499999999996	0.349999999999971
